HIERARCHY
ROOT Hips
{
	OFFSET 0.00000 0.00000 0.00000
	CHANNELS 6 Xposition Yposition Zposition Zrotation Yrotation Xrotation 
	JOINT LHipJoint
	{
		OFFSET 0 0 0
		CHANNELS 3 Zrotation Yrotation Xrotation
		JOINT LeftUpLeg
		{
			OFFSET 1.54859 -1.61379 0.86856
			CHANNELS 3 Zrotation Yrotation Xrotation
			JOINT LeftLeg
			{
				OFFSET 2.25087 -6.18423 0.00000
				CHANNELS 3 Zrotation Yrotation Xrotation
				JOINT LeftFoot
				{
					OFFSET 2.40328 -6.60297 0.00000
					CHANNELS 3 Zrotation Yrotation Xrotation
					JOINT LeftToeBase
					{
						OFFSET 0.17435 -0.47901 2.02453
						CHANNELS 3 Zrotation Yrotation Xrotation
						End Site
						{
							OFFSET 0.00000 -0.00000 1.04844
						}
					}
				}
			}
		}
	}
	JOINT RHipJoint
	{
		OFFSET 0 0 0
		CHANNELS 3 Zrotation Yrotation Xrotation
		JOINT RightUpLeg
		{
			OFFSET -1.54669 -1.61379 0.86856
			CHANNELS 3 Zrotation Yrotation Xrotation
			JOINT RightLeg
			{
				OFFSET -2.28132 -6.26789 0.00000
				CHANNELS 3 Zrotation Yrotation Xrotation
				JOINT RightFoot
				{
					OFFSET -2.51636 -6.91365 0.00000
					CHANNELS 3 Zrotation Yrotation Xrotation
					JOINT RightToeBase
					{
						OFFSET -0.15124 -0.41552 2.21090
						CHANNELS 3 Zrotation Yrotation Xrotation
						End Site
						{
							OFFSET -0.00000 -0.00000 1.13399
						}
					}
				}
			}
		}
	}
	JOINT LowerBack
	{
		OFFSET 0 0 0
		CHANNELS 3 Zrotation Yrotation Xrotation
		JOINT Spine
		{
			OFFSET -0.04287 2.26161 -0.25690
			CHANNELS 3 Zrotation Yrotation Xrotation
			JOINT Spine1
			{
				OFFSET 0.02248 2.28395 -0.10140
				CHANNELS 3 Zrotation Yrotation Xrotation
				JOINT Neck
				{
					OFFSET 0 0 0
					CHANNELS 3 Zrotation Yrotation Xrotation
					JOINT Neck1
					{
						OFFSET -0.11644 1.38496 0.11345
						CHANNELS 3 Zrotation Yrotation Xrotation
						JOINT Head
						{
							OFFSET 0.29383 1.36600 0.06642
							CHANNELS 3 Zrotation Yrotation Xrotation
							End Site
							{
								OFFSET 0.11075 1.41395 -0.00294
							}
						}
					}
				}
				JOINT LeftShoulder
				{
					OFFSET 0 0 0
					CHANNELS 3 Zrotation Yrotation Xrotation
					JOINT LeftArm
					{
						OFFSET 3.51628 0.59542 -0.30346
						CHANNELS 3 Zrotation Yrotation Xrotation
						JOINT LeftForeArm
						{
							OFFSET 4.76405 -0.00000 0.00000
							CHANNELS 3 Zrotation Yrotation Xrotation
							JOINT LeftHand
							{
								OFFSET 3.13759 -0.00000 -0.00000
								CHANNELS 3 Zrotation Yrotation Xrotation
								JOINT LeftFingerBase
								{
									OFFSET 0 0 0
									CHANNELS 3 Zrotation Yrotation Xrotation
									JOINT LeftHandIndex1
									{
										OFFSET 0.73226 -0.00000 -0.00000
										CHANNELS 3 Zrotation Yrotation Xrotation
										End Site
										{
											OFFSET 0.59037 -0.00000 -0.00000
										}
									}
								}
								JOINT LThumb
								{
									OFFSET 0 0 0
									CHANNELS 3 Zrotation Yrotation Xrotation
									End Site
									{
										OFFSET 0.59938 -0.00000 0.59938
									}
								}
							}
						}
					}
				}
				JOINT RightShoulder
				{
					OFFSET 0 0 0
					CHANNELS 3 Zrotation Yrotation Xrotation
					JOINT RightArm
					{
						OFFSET -3.30990 0.84213 -0.36430
						CHANNELS 3 Zrotation Yrotation Xrotation
						JOINT RightForeArm
						{
							OFFSET -5.10161 -0.00000 -0.00000
							CHANNELS 3 Zrotation Yrotation Xrotation
							JOINT RightHand
							{
								OFFSET -3.23267 -0.00000 -0.00000
								CHANNELS 3 Zrotation Yrotation Xrotation
								JOINT RightFingerBase
								{
									OFFSET 0 0 0
									CHANNELS 3 Zrotation Yrotation Xrotation
									JOINT RightHandIndex1
									{
										OFFSET -0.70200 -0.00000 -0.00000
										CHANNELS 3 Zrotation Yrotation Xrotation
										End Site
										{
											OFFSET -0.56597 -0.00000 -0.00000
										}
									}
								}
								JOINT RThumb
								{
									OFFSET 0 0 0
									CHANNELS 3 Zrotation Yrotation Xrotation
									End Site
									{
										OFFSET -0.57461 -0.00000 0.57461
									}
								}
							}
						}
					}
				}
			}
		}
	}
}
MOTION
Frames: 13
Frame Time: .0083333
-36.6245 15.838 1.2392 0 0 0 0 0 0 -21 0 0 0 0 0 0 0 0 0 0 0 0 0 0 21 0 0 0 0 0 0 0 0 0 0 0 0 0 0 0 0 0 0 0 0 0 0 -16 0 0 21 0 0 11 0 0 0 -8 0 0 0 0 0 0 0 0 0 0 0 0 0 0 0 0 0 0 0 0 8 0 0 0 0 0 0 0 0 0 0 0 0 0 0 0 0 0
-36.6245 15.8380 1.2392 163.1310 68.1282 174.5360 0.0000 0.0000 0.0000 -16.0169 -4.4497 -21.9085 2.0258 8.9196 25.5441 0.1286 -6.2613 -7.2255 0.6569 -5.1842 -14.4346 0.0000 0.0000 0.0000 8.2458 -7.0597 -25.1000 -5.1493 -13.5500 41.4638 -1.7514 -10.9664 -31.0131 -0.0085 0.5964 -1.6388 -8.5679 -2.4705 8.7000 0.6418 -3.4857 6.4624 5.6867 -1.9293 2.4948 -9.3672 1.2937 -17.6795 11.8495 5.6612 -14.9123 5.4108 3.8246 -2.1866 -0.0000 -0.0000 0.0000 -57.0630 -19.2517 89.3149 116.2632 -57.2262 -82.5328 -0.0000 0.0000 -69.8645 40.6171 46.4534 31.8657 -7.1250 0.0000 -0.0000 0.5556 84.1686 0.4963 -0.0000 -0.0000 0.0000 55.8761 -0.6662 83.1477 -127.0302 54.1252 -91.4364 0.0000 -0.0000 -55.3531 -63.0680 29.8607 -44.4226 7.1250 -0.0000 -0.0000 -17.2282 19.8389 -22.8707
-36.5727 15.8224 1.2198 163.4380 67.3886 173.8950 0.0000 0.0000 0.0000 -16.1630 -4.2901 -20.4741 1.9448 8.7501 25.0166 0.0926 -6.5579 -6.6561 0.2794 -3.3998 -9.3940 0.0000 0.0000 0.0000 8.1263 -7.3131 -23.4547 -5.1146 -13.5117 41.3153 -1.8885 -11.0051 -31.8841 -0.0002 0.0814 -0.2237 -8.8073 -2.1370 9.7247 0.5892 -3.1357 6.4516 5.8005 -1.7253 1.8788 -9.5986 0.7711 -17.7246 12.5472 5.0163 -14.5930 5.6655 3.5132 -2.0176 0.0000 0.0000 0.0000 -56.2312 -18.5605 87.6013 119.7883 -56.3661 -85.4827 -0.0000 0.0000 -68.2628 40.5629 45.7719 31.5237 -7.1250 0.0000 -0.0000 2.4634 83.4914 2.1684 0.0000 0.0000 0.0000 56.4212 -0.6252 82.9633 -130.0793 52.9635 -93.8892 0.0000 -0.0000 -52.9572 -63.5705 30.7818 -45.8362 7.1250 -0.0000 -0.0000 -17.1592 21.3276 -23.0158
-36.5202 15.8004 1.2031 163.7120 66.6911 173.2600 0.0000 0.0000 0.0000 -16.2338 -4.2980 -19.1663 1.9172 8.6915 24.8351 0.0613 -7.1275 -6.3181 0.0219 -0.9544 -2.6234 0.0000 0.0000 0.0000 8.0322 -7.5181 -21.7996 -5.0522 -13.4423 41.0475 -2.0185 -11.0623 -32.6995 -0.0054 -0.4749 1.3050 -8.9036 -1.7779 10.3940 0.3821 -2.6872 6.6706 5.6311 -1.4824 1.6680 -9.9052 0.0684 -17.6755 13.5335 4.2042 -14.5519 6.0204 3.1290 -1.9183 -0.0000 0.0000 0.0000 -54.9806 -18.6546 85.6388 122.9132 -55.4823 -88.0713 -0.0000 0.0000 -66.6489 40.0957 44.6919 30.6314 -7.1250 0.0000 -0.0000 3.4701 82.2540 2.9711 -0.0000 0.0000 0.0000 57.3429 0.0007 82.3204 -132.7720 51.8144 -96.0225 0.0000 -0.0000 -50.5679 -64.1891 31.6409 -47.3253 7.1250 -0.0000 -0.0000 -17.1621 22.8216 -23.2478
-36.4728 15.7889 1.1921 163.9430 66.0920 172.2840 0.0000 0.0000 0.0000 -16.4296 -3.8702 -17.7597 1.9021 8.6591 24.7347 0.0541 -7.5815 -6.4311 0.0527 -1.4814 -4.0743 0.0000 0.0000 0.0000 7.9843 -7.7494 -19.8831 -4.9775 -13.3584 40.7252 -2.1497 -11.2159 -33.5658 -0.0277 -1.0742 2.9529 -9.1884 -1.2857 11.5472 0.3256 -2.1312 6.8162 5.7281 -1.1758 1.1215 -9.7326 -0.6201 -16.6316 13.7282 3.3128 -15.5928 6.0161 2.6464 -2.2664 0.0000 -0.0000 0.0000 -53.9291 -19.0473 83.7256 125.7213 -54.5819 -90.3727 -0.0000 0.0000 -64.9671 39.6867 43.7924 29.8677 -7.1250 0.0000 -0.0000 3.9546 81.2069 3.3041 0.0000 -0.0000 0.0000 57.9774 0.8312 81.5467 -135.0287 50.7544 -97.7835 0.0000 -0.0000 -48.0804 -64.4208 32.3820 -48.2103 7.1250 -0.0000 -0.0000 -16.9993 23.8406 -23.1565
-36.4200 15.7936 1.1737 164.0380 65.7508 171.6800 0.0000 0.0000 0.0000 -16.6702 -3.4424 -16.9510 1.9022 8.6594 24.7355 0.0841 -7.5596 -6.9837 0.3958 -4.0396 -11.1882 0.0000 0.0000 0.0000 7.9706 -7.6933 -18.4872 -4.8950 -13.2645 40.3669 -2.2788 -11.3120 -34.3583 -0.0610 -1.5940 4.3849 -9.5848 -0.7270 12.1080 0.4152 -1.4782 6.8131 6.0016 -0.8390 0.7295 -9.9814 -1.2877 -16.0485 14.1153 2.4476 -15.8674 6.1581 2.2015 -2.3242 0.0000 0.0000 0.0000 -52.8266 -19.7671 82.4291 127.5895 -53.9226 -91.8890 -0.0000 0.0000 -61.4211 41.4546 39.4045 29.2802 -7.1250 0.0000 -0.0000 13.1713 77.3159 9.9892 0.0000 0.0000 0.0000 58.2572 2.1758 80.6931 -137.1154 49.6890 -99.3873 0.0000 -0.0000 -45.0363 -64.9665 32.9146 -49.3224 7.1250 -0.0000 -0.0000 -17.0736 24.8831 -23.4047
-36.3618 15.7997 1.1502 163.9970 65.7475 171.5580 0.0000 0.0000 0.0000 -16.8040 -3.1183 -16.7454 1.9147 8.6860 24.8180 0.1147 -7.4610 -7.4854 0.7399 -5.4952 -15.3265 0.0000 0.0000 0.0000 8.0100 -7.3299 -17.7975 -4.8149 -13.1723 40.0170 -2.3983 -11.2897 -35.0003 -0.0926 -1.9623 5.4016 -10.0972 -0.1079 11.8175 0.5854 -0.6933 6.7593 6.3870 -0.4667 0.7151 -12.1673 -2.2277 -17.0564 16.5518 1.5339 -14.0886 7.3200 1.8740 -1.4896 -0.0000 0.0000 0.0000 -51.6107 -21.0836 80.7044 128.9682 -53.4033 -92.9996 -0.0000 0.0000 -56.8532 44.5814 31.6297 27.3308 -7.1250 0.0000 -0.0000 20.4231 69.8508 12.3136 -0.0000 0.0000 0.0000 58.2787 4.3957 79.0279 -138.9647 48.6715 -100.7869 0.0000 -0.0000 -43.9406 -64.3496 34.1355 -49.4450 7.1250 -0.0000 -0.0000 -16.2650 25.6724 -22.3262
-36.3029 15.7981 1.1303 164.1630 65.6845 171.6980 0.0000 0.0000 0.0000 -16.7617 -3.0224 -16.5361 1.9246 8.7073 24.8839 0.1285 -7.5136 -7.7469 0.8442 -5.8604 -16.3799 0.0000 0.0000 0.0000 8.1825 -6.8629 -17.1645 -4.7491 -13.0956 39.7273 -2.5569 -11.3252 -35.8737 -0.1305 -2.3288 6.4153 -10.2178 0.3896 11.3159 0.4178 0.0010 6.7606 6.1991 -0.1295 0.8619 -12.3318 -2.9415 -15.7923 17.4315 0.6606 -15.0647 7.6109 1.3933 -1.8081 -0.0000 -0.0000 0.0000 -50.0378 -23.3287 75.7308 130.8659 -52.6402 -94.5158 -0.0000 0.0000 -59.6050 40.3239 33.7759 25.2614 -7.1250 0.0000 -0.0000 12.5369 70.8827 7.7787 -0.0000 -0.0000 0.0000 58.8213 7.3401 77.0181 -140.3349 47.8702 -101.8096 0.0000 -0.0000 -42.5210 -65.2089 33.5816 -50.1371 7.1250 -0.0000 -0.0000 -16.9315 25.8038 -23.3136
-36.2503 15.7941 1.1111 164.2700 65.6038 171.8880 0.0000 0.0000 0.0000 -16.7243 -3.1414 -16.2811 1.9020 8.6589 24.7339 0.1388 -7.5040 -7.9175 0.9183 -6.1057 -17.0913 0.0000 0.0000 0.0000 8.3320 -6.2792 -16.6522 -4.6998 -13.0375 39.5092 -2.7129 -11.4083 -36.7413 -0.1876 -2.7896 7.6936 -10.4375 0.8751 10.7318 0.3272 0.6761 6.7176 6.1578 0.1925 1.0137 -12.3293 -3.5721 -14.5156 18.0489 -0.1582 -15.9830 7.7963 0.9211 -2.1234 0.0000 -0.0000 0.0000 -48.7951 -26.2682 70.6154 131.3175 -52.4501 -94.8742 -0.0000 0.0000 -60.6151 35.9931 35.8204 23.0303 -7.1250 0.0000 -0.0000 4.1174 71.6777 2.6156 0.0000 -0.0000 0.0000 59.1434 10.4547 74.6853 -140.7815 47.6000 -102.1400 0.0000 -0.0000 -40.2209 -64.4644 36.4661 -51.2076 7.1250 -0.0000 -0.0000 -15.3317 28.1588 -21.2420
-36.2048 15.7902 1.0920 164.2960 65.5599 172.1430 0.0000 0.0000 0.0000 -16.7129 -3.2906 -16.1536 1.8701 8.5901 24.5212 0.1593 -7.4841 -8.2492 1.0595 -6.5445 -18.3727 0.0000 0.0000 0.0000 8.4293 -5.7260 -16.3872 -4.6684 -13.0003 39.3698 -2.8411 -11.3932 -37.3846 -0.2650 -3.3118 9.1482 -10.4844 1.3196 10.0919 0.0856 1.3072 6.5665 5.8695 0.5056 1.0884 -13.5283 -4.3328 -13.9459 20.1441 -0.9997 -15.6854 8.6903 0.5106 -1.8927 0.0000 -0.0000 0.0000 -47.5386 -29.8443 65.4078 130.2431 -52.8970 -94.0199 -0.0000 0.0000 -59.8974 34.3244 37.3932 22.5208 -7.1250 0.0000 -0.0000 0.1152 72.7655 0.0759 0.0000 -0.0000 0.0000 59.6277 14.5328 72.6131 -140.5334 47.7507 -101.9566 0.0000 -0.0000 -38.3182 -64.4425 37.1061 -51.5975 7.1250 -0.0000 -0.0000 -15.0350 28.7754 -20.8702
-36.1882 15.7607 1.0309 161.9130 66.8938 167.3660 0.0000 0.0000 0.0000 -17.7176 -1.7459 -12.8889 1.8228 8.4869 24.2030 0.2595 -6.8702 -9.5960 1.2566 -7.1063 -20.0307 0.0000 0.0000 0.0000 6.9940 -5.9325 -13.6167 -4.6543 -12.9836 39.3072 -2.8120 -10.3493 -36.5918 -0.2037 -2.9058 8.0165 -10.5772 2.4240 12.0431 -0.6364 2.6321 7.0574 4.9618 1.2364 0.3553 -15.0711 -5.1393 -14.1866 22.7926 -1.9389 -14.3444 9.8262 0.1150 -1.1489 0.0000 -0.0000 0.0000 -46.1891 -33.8185 61.8119 127.4682 -53.9669 -91.7910 -0.0000 0.0000 -55.1605 31.1115 38.1532 20.4469 -7.1250 0.0000 -0.0000 -5.8756 72.4446 -3.8334 0.0000 -0.0000 0.0000 60.2279 18.9102 70.6502 -140.0316 48.0511 -101.5843 0.0000 -0.0000 -37.6272 -65.7327 37.9497 -53.7551 7.1250 -0.0000 -0.0000 -15.2820 30.6241 -21.3904
-36.1993 15.7343 0.9959 161.0640 67.3266 165.4270 0.0000 0.0000 0.0000 -18.0487 -1.3957 -11.3293 1.7916 8.4177 23.9903 0.2951 -6.6007 -10.0471 1.0369 -6.4766 -18.1738 0.0000 0.0000 0.0000 6.4100 -6.0653 -12.4216 -4.6593 -12.9896 39.3295 -2.8710 -9.7257 -36.5246 -0.1840 -2.7630 7.6197 -10.2825 3.0469 13.2238 -1.1276 3.3623 7.0606 4.1259 1.6654 -0.3544 -15.8800 -5.7943 -14.2002 24.5853 -2.8466 -13.3187 10.5405 -0.3006 -0.5576 -0.0000 0.0000 0.0000 -44.7237 -36.6958 58.1962 125.4707 -54.6665 -90.1684 -0.0000 0.0000 -50.5776 30.8832 36.1892 19.4504 -7.1250 0.0000 -0.0000 -4.2593 70.3845 -2.5838 -0.0000 0.0000 0.0000 60.6993 23.8993 68.7184 -137.9875 49.2181 -100.0500 0.0000 -0.0000 -35.2020 -66.4598 37.8782 -54.6428 7.1250 -0.0000 -0.0000 -15.6753 31.1498 -22.0084
-36.1777 15.7019 0.9759 160.3520 67.7466 163.8350 0.0000 0.0000 0.0000 -18.1854 -0.9415 -10.0217 1.7748 8.3803 23.8753 0.2729 -3.4710 -9.2846 0.3781 -3.9489 -10.9330 0.0000 0.0000 0.0000 5.9638 -6.5036 -11.5844 -4.6755 -13.0088 39.4014 -2.9536 -8.9775 -36.5223 -0.1728 -2.6781 7.3839 -10.2824 3.6319 13.7913 -1.4521 4.0841 7.1130 3.6410 2.0545 -0.6802 -16.2795 -6.3410 -13.7788 25.6401 -3.7507 -12.6086 10.9167 -0.7669 -0.1593 0.0000 -0.0000 0.0000 -43.8380 -40.3403 53.3250 120.9714 -56.0455 -86.4659 -0.0000 0.0000 -49.3064 28.8239 33.4619 16.8791 -7.1250 0.0000 -0.0000 -4.9727 66.9480 -2.6312 0.0000 -0.0000 0.0000 61.1686 29.4179 65.3063 -133.8437 51.3226 -96.8620 0.0000 -0.0000 -29.3796 -68.5390 38.9503 -57.9801 7.1250 -0.0000 -0.0000 -16.1784 33.8654 -22.9408
